<?xml version="1.0" standalone="no"?>
<!DOCTYPE svg PUBLIC "-//W3C//DTD SVG 1.0//EN" "http://www.w3.org/TR/2001/REC-SVG-20010904/DTD/svg10.dtd">
<svg xmlns="http://www.w3.org/2000/svg" xmlns:xlink="http://www.w3.org/1999/xlink" id="body_1" width="101" height="99">

<g transform="matrix(0.26541555 0 0 0.26541555 0.9383341 -0)">
	<g transform="matrix(0.1 0 -0 -0.1 0 373)">
        <path d="M1746 3703C 1742 3699 1713 3694 1682 3693C 1602 3689 1577 3686 1563 3677C 1556 3672 1545 3672 1540 3675C 1534 3679 1523 3677 1516 3671C 1509 3665 1495 3662 1486 3666C 1477 3669 1470 3667 1470 3660C 1470 3653 1462 3651 1450 3655C 1438 3659 1430 3657 1430 3650C 1430 3643 1422 3641 1410 3645C 1398 3649 1390 3647 1390 3640C 1390 3633 1383 3630 1375 3633C 1367 3637 1358 3635 1355 3630C 1352 3625 1343 3623 1335 3627C 1327 3630 1320 3627 1320 3620C 1320 3614 1316 3612 1310 3615C 1305 3618 1300 3616 1300 3610C 1300 3603 1293 3600 1285 3604C 1277 3607 1270 3605 1270 3600C 1270 3595 1263 3593 1255 3596C 1247 3600 1240 3597 1240 3590C 1240 3584 1236 3581 1231 3585C 1226 3588 1219 3586 1215 3580C 1211 3574 1204 3572 1199 3575C 1194 3579 1190 3576 1190 3570C 1190 3564 1186 3562 1180 3565C 1175 3568 1170 3567 1170 3561C 1170 3555 1163 3553 1155 3556C 1147 3560 1140 3557 1140 3550C 1140 3544 1136 3542 1130 3545C 1125 3548 1120 3546 1120 3540C 1120 3534 1116 3532 1110 3535C 1105 3538 1100 3536 1100 3530C 1100 3524 1096 3522 1090 3525C 1085 3528 1080 3526 1080 3520C 1080 3514 1076 3512 1070 3515C 1065 3518 1060 3516 1060 3510C 1060 3504 1056 3502 1050 3505C 1045 3508 1040 3506 1040 3500C 1040 3494 1036 3492 1030 3495C 1025 3498 1020 3496 1020 3490C 1020 3484 1016 3482 1010 3485C 1005 3488 1000 3486 1000 3480C 1000 3474 996 3472 990 3475C 984 3478 980 3476 980 3470C 980 3464 976 3461 971 3464C 966 3467 959 3463 956 3454C 953 3446 946 3442 940 3445C 935 3448 930 3446 930 3440C 930 3434 925 3432 920 3435C 914 3438 907 3434 904 3426C 901 3417 894 3412 890 3415C 886 3418 879 3413 876 3404C 873 3396 866 3391 861 3394C 856 3397 849 3393 846 3385C 843 3377 836 3371 831 3372C 826 3374 814 3366 805 3355C 796 3344 791 3342 795 3350C 799 3358 794 3356 785 3345C 776 3334 765 3325 761 3325C 756 3325 742 3314 730 3300C 718 3286 711 3282 715 3290C 718 3298 708 3290 692 3273C 677 3255 659 3240 654 3240C 641 3240 510 3106 510 3092C 510 3087 493 3068 473 3050C 452 3033 442 3021 450 3025C 458 3029 454 3022 440 3010C 426 2998 415 2984 415 2980C 415 2976 404 2962 390 2950C 376 2938 372 2931 380 2935C 388 2939 384 2932 370 2920C 356 2908 352 2901 360 2905C 368 2909 364 2902 350 2890C 336 2878 332 2871 340 2875C 348 2879 344 2872 330 2860C 316 2848 312 2841 320 2845C 328 2849 324 2842 310 2830C 296 2818 292 2811 300 2815C 310 2819 309 2817 298 2807C 288 2799 283 2790 287 2787C 290 2783 288 2780 281 2780C 274 2780 272 2776 275 2770C 278 2765 276 2760 270 2760C 264 2760 262 2755 265 2750C 268 2744 264 2737 256 2734C 247 2731 243 2724 246 2719C 249 2714 246 2710 240 2710C 234 2710 232 2706 235 2700C 238 2695 236 2690 230 2690C 224 2690 222 2686 225 2680C 228 2675 226 2670 220 2670C 214 2670 212 2666 215 2660C 218 2655 217 2650 211 2650C 205 2650 203 2643 206 2635C 210 2627 207 2620 200 2620C 194 2620 192 2616 195 2610C 198 2605 196 2600 190 2600C 184 2600 182 2596 185 2590C 188 2585 186 2580 180 2580C 174 2580 172 2576 175 2570C 178 2565 176 2560 170 2560C 163 2560 160 2553 164 2545C 167 2537 165 2530 159 2530C 153 2530 152 2526 155 2520C 158 2515 156 2510 150 2510C 143 2510 140 2503 144 2495C 147 2487 145 2480 140 2480C 135 2480 133 2473 136 2465C 140 2457 137 2450 130 2450C 124 2450 121 2446 125 2441C 128 2436 126 2429 121 2425C 115 2422 113 2413 117 2405C 120 2397 117 2390 111 2390C 105 2390 103 2383 106 2375C 110 2367 107 2360 100 2360C 93 2360 90 2353 94 2345C 97 2337 95 2330 89 2330C 83 2330 80 2323 83 2315C 87 2307 85 2298 79 2294C 74 2291 72 2280 75 2269C 79 2258 77 2250 70 2250C 63 2250 61 2243 64 2234C 68 2225 65 2211 59 2204C 53 2196 51 2183 54 2174C 57 2165 57 2153 53 2147C 42 2129 38 2059 38 1858C 38 1661 42 1581 53 1562C 57 1556 58 1539 54 1525C 50 1509 52 1500 60 1500C 67 1500 69 1492 65 1481C 62 1470 64 1459 70 1455C 76 1451 78 1440 75 1429C 71 1418 73 1410 80 1410C 87 1410 90 1403 87 1395C 83 1387 85 1378 90 1375C 95 1372 97 1363 93 1355C 90 1347 93 1340 99 1340C 105 1340 107 1333 104 1325C 100 1317 103 1310 109 1310C 115 1310 117 1303 114 1295C 110 1287 113 1280 119 1280C 125 1280 127 1273 124 1265C 120 1257 123 1250 129 1250C 135 1250 137 1243 134 1235C 130 1227 133 1220 139 1220C 145 1220 147 1213 144 1205C 140 1197 143 1190 150 1190C 156 1190 159 1186 155 1181C 152 1176 154 1169 160 1165C 166 1161 168 1154 165 1149C 161 1144 164 1140 170 1140C 176 1140 178 1136 175 1130C 172 1125 174 1120 180 1120C 186 1120 188 1116 185 1110C 182 1105 183 1100 189 1100C 195 1100 197 1093 194 1085C 190 1077 193 1070 200 1070C 206 1070 208 1066 205 1060C 202 1055 204 1050 210 1050C 216 1050 218 1046 215 1040C 212 1035 214 1030 220 1030C 226 1030 229 1026 225 1020C 222 1015 228 1002 239 991C 250 980 256 969 252 966C 249 963 252 960 259 960C 266 960 268 956 265 950C 262 945 264 940 271 940C 278 940 280 937 277 933C 273 930 278 921 288 913C 299 903 300 901 290 905C 280 909 281 907 292 897C 302 889 307 880 303 877C 300 873 302 870 308 870C 315 870 319 866 318 861C 316 856 324 844 335 835C 346 826 348 821 340 825C 332 829 334 824 345 815C 356 806 365 795 365 790C 365 785 374 774 385 765C 396 756 398 751 390 755C 382 759 389 749 405 735C 422 720 428 711 420 715C 412 718 416 712 430 700C 444 688 455 674 455 670C 455 666 513 604 584 534C 656 463 710 412 706 420C 701 428 710 422 725 405C 739 389 748 382 745 390C 741 398 750 392 765 375C 779 359 788 352 785 360C 781 368 788 364 799 350C 810 336 820 330 820 335C 820 341 825 337 831 327C 837 318 845 312 850 315C 854 318 861 313 864 304C 867 296 874 291 879 294C 884 297 891 293 894 284C 897 276 904 272 910 275C 915 278 920 276 920 269C 920 262 923 260 927 263C 930 267 939 262 947 252C 957 241 959 240 955 250C 951 260 953 259 963 248C 971 238 980 233 983 237C 987 240 990 238 990 231C 990 224 994 222 1000 225C 1005 228 1010 226 1010 220C 1010 214 1015 212 1020 215C 1026 218 1030 216 1030 210C 1030 204 1035 202 1040 205C 1046 208 1050 206 1050 200C 1050 194 1055 192 1060 195C 1065 198 1070 196 1070 190C 1070 184 1075 182 1080 185C 1086 188 1090 186 1090 180C 1090 174 1095 172 1100 175C 1105 178 1110 176 1110 170C 1110 164 1115 162 1120 165C 1125 168 1130 167 1130 161C 1130 155 1137 153 1145 156C 1153 160 1160 157 1160 150C 1160 144 1165 142 1170 145C 1176 148 1180 146 1180 140C 1180 134 1184 131 1189 134C 1194 138 1200 135 1202 128C 1209 107 1229 130 1236 168C 1240 188 1247 210 1252 217C 1257 224 1259 234 1256 239C 1252 244 1254 252 1260 255C 1266 259 1268 270 1265 280C 1262 290 1264 301 1270 305C 1276 309 1278 320 1275 330C 1272 340 1274 351 1280 355C 1286 359 1288 370 1285 380C 1282 390 1284 401 1290 405C 1296 409 1299 418 1296 426C 1293 433 1295 442 1301 446C 1306 449 1308 460 1305 470C 1302 480 1304 491 1310 495C 1316 499 1318 510 1315 520C 1312 530 1314 541 1320 545C 1326 549 1328 560 1325 570C 1322 580 1324 591 1330 595C 1336 599 1338 610 1335 621C 1331 632 1333 640 1340 640C 1347 640 1349 648 1345 659C 1342 670 1344 681 1350 685C 1356 689 1358 700 1355 710C 1352 720 1354 731 1360 735C 1366 739 1368 750 1365 760C 1362 770 1364 781 1370 785C 1376 789 1378 800 1375 810C 1372 820 1374 831 1380 835C 1386 839 1389 848 1386 856C 1383 863 1385 872 1391 876C 1396 879 1398 890 1395 900C 1392 910 1394 921 1400 925C 1406 929 1408 940 1405 950C 1402 960 1404 971 1410 975C 1416 979 1418 990 1415 1000C 1412 1010 1414 1021 1420 1025C 1426 1029 1428 1040 1425 1051C 1421 1062 1423 1070 1430 1070C 1437 1070 1439 1078 1435 1089C 1432 1100 1434 1111 1440 1115C 1446 1119 1449 1129 1446 1137C 1442 1146 1445 1159 1451 1166C 1457 1173 1459 1184 1455 1190C 1451 1196 1454 1207 1460 1215C 1466 1223 1469 1234 1465 1240C 1461 1246 1464 1257 1470 1265C 1476 1273 1479 1284 1476 1289C 1472 1294 1474 1302 1480 1305C 1486 1309 1488 1320 1485 1330C 1482 1340 1484 1351 1490 1355C 1496 1359 1498 1370 1495 1380C 1492 1390 1494 1401 1500 1405C 1506 1409 1508 1420 1505 1430C 1502 1440 1504 1451 1510 1455C 1516 1459 1518 1470 1515 1481C 1511 1492 1513 1500 1520 1500C 1527 1500 1529 1508 1525 1519C 1522 1530 1524 1541 1530 1545C 1536 1549 1538 1560 1535 1570C 1532 1580 1534 1591 1540 1595C 1546 1599 1548 1610 1545 1620C 1542 1630 1544 1641 1550 1645C 1556 1649 1558 1660 1555 1671C 1551 1682 1553 1690 1560 1690C 1567 1690 1570 1698 1567 1710C 1564 1721 1566 1733 1572 1736C 1577 1739 1579 1749 1576 1757C 1572 1766 1575 1779 1581 1786C 1587 1793 1589 1804 1585 1810C 1581 1816 1584 1827 1590 1835C 1596 1843 1599 1854 1595 1860C 1591 1866 1594 1877 1600 1885C 1606 1893 1609 1904 1605 1910C 1601 1916 1604 1927 1610 1935C 1616 1943 1619 1954 1615 1960C 1611 1966 1613 1976 1618 1983C 1624 1990 1628 2006 1629 2020C 1629 2034 1632 2061 1635 2080C 1640 2106 1639 2111 1631 2100C 1625 2092 1620 2089 1620 2094C 1620 2098 1611 2092 1599 2079C 1588 2066 1581 2062 1585 2070C 1589 2078 1575 2067 1556 2045C 1536 2023 1520 2010 1520 2015C 1520 2021 1515 2017 1509 2007C 1503 1998 1495 1992 1489 1995C 1484 1999 1480 1996 1480 1990C 1480 1984 1475 1982 1470 1985C 1464 1988 1457 1984 1454 1975C 1450 1966 1441 1961 1434 1964C 1426 1967 1420 1964 1420 1958C 1420 1952 1417 1950 1413 1953C 1410 1957 1401 1955 1393 1949C 1386 1943 1380 1941 1380 1945C 1380 1949 1373 1947 1365 1940C 1357 1934 1346 1931 1340 1935C 1335 1938 1324 1938 1318 1933C 1304 1925 1254 1918 1200 1918C 1164 1918 1059 1927 1050 1930C 1047 1931 1042 1932 1038 1931C 1033 1931 1030 1935 1030 1941C 1030 1947 1023 1950 1015 1946C 1007 1943 1000 1945 1000 1950C 1000 1956 996 1959 991 1958C 986 1956 974 1964 965 1975C 956 1986 952 1988 956 1980C 959 1972 948 1981 929 2000C 911 2019 897 2039 898 2043C 899 2047 893 2053 885 2056C 877 2059 873 2066 876 2071C 879 2076 876 2080 870 2080C 864 2080 862 2085 865 2090C 868 2096 866 2100 860 2100C 853 2100 850 2107 854 2115C 857 2123 855 2130 851 2130C 840 2130 839 2146 839 2295C 839 2433 843 2488 854 2512C 858 2521 859 2534 855 2540C 851 2546 854 2557 860 2565C 867 2573 870 2586 867 2595C 863 2603 865 2612 871 2616C 876 2619 878 2630 875 2641C 871 2651 873 2660 879 2660C 885 2660 887 2667 884 2675C 880 2683 883 2690 890 2690C 896 2690 898 2695 895 2700C 892 2706 894 2710 900 2710C 907 2710 910 2717 906 2725C 903 2733 905 2740 910 2740C 915 2740 917 2747 914 2755C 910 2763 913 2770 920 2770C 926 2770 928 2775 925 2780C 922 2786 924 2790 930 2790C 936 2790 938 2795 935 2800C 932 2806 934 2810 941 2810C 948 2810 950 2813 947 2817C 943 2820 948 2829 958 2837C 969 2847 970 2849 960 2845C 952 2841 954 2846 964 2854C 975 2863 980 2870 975 2870C 970 2870 975 2877 986 2886C 996 2894 998 2898 990 2895C 982 2891 989 2900 1005 2915C 1022 2929 1028 2938 1020 2935C 1012 2931 1020 2941 1038 2957C 1056 2972 1082 2999 1096 3015C 1110 3032 1118 3038 1115 3030C 1111 3022 1118 3026 1129 3040C 1140 3054 1150 3061 1150 3056C 1150 3050 1157 3055 1166 3066C 1174 3076 1179 3078 1175 3070C 1171 3060 1173 3061 1183 3072C 1191 3082 1200 3087 1203 3083C 1207 3080 1210 3082 1210 3089C 1210 3096 1215 3098 1220 3095C 1226 3092 1230 3094 1230 3100C 1230 3106 1234 3109 1239 3105C 1244 3102 1251 3104 1255 3110C 1259 3116 1266 3118 1271 3115C 1276 3111 1280 3114 1280 3120C 1280 3127 1288 3129 1300 3125C 1311 3122 1320 3123 1320 3128C 1320 3139 1336 3141 1435 3141C 1535 3141 1550 3139 1550 3128C 1550 3122 1557 3120 1565 3124C 1573 3127 1580 3125 1580 3120C 1580 3115 1587 3113 1595 3116C 1603 3120 1610 3117 1610 3110C 1610 3104 1614 3101 1619 3104C 1624 3107 1631 3103 1634 3094C 1638 3085 1643 3080 1647 3083C 1650 3087 1661 3078 1672 3065C 1683 3051 1696 3043 1702 3046C 1709 3050 1710 3048 1706 3041C 1702 3035 1706 3027 1714 3024C 1723 3021 1727 3014 1724 3009C 1721 3004 1724 3000 1730 3000C 1736 3000 1739 2996 1735 2991C 1732 2985 1738 2977 1747 2971C 1757 2965 1761 2960 1757 2960C 1752 2960 1755 2953 1764 2945C 1781 2928 1794 2925 1785 2940C 1782 2946 1784 2950 1790 2950C 1797 2950 1800 2957 1796 2965C 1793 2973 1795 2980 1801 2980C 1807 2980 1810 2987 1806 2995C 1803 3003 1805 3010 1811 3010C 1817 3010 1819 3019 1815 3029C 1812 3040 1814 3051 1820 3055C 1826 3059 1829 3068 1826 3076C 1823 3083 1825 3092 1831 3096C 1836 3099 1838 3110 1835 3121C 1831 3132 1833 3140 1840 3140C 1847 3140 1849 3148 1845 3159C 1842 3170 1844 3181 1850 3185C 1856 3189 1858 3200 1855 3211C 1851 3222 1853 3230 1860 3230C 1867 3230 1869 3238 1865 3249C 1862 3260 1864 3271 1870 3275C 1876 3279 1878 3290 1875 3300C 1872 3310 1874 3321 1880 3325C 1885 3328 1887 3342 1884 3356C 1880 3371 1882 3380 1889 3380C 1896 3380 1898 3389 1894 3405C 1890 3421 1892 3430 1899 3430C 1906 3430 1908 3439 1904 3455C 1900 3471 1902 3480 1910 3480C 1917 3480 1920 3487 1916 3495C 1913 3503 1919 3549 1929 3597C 1940 3646 1947 3686 1946 3687C 1942 3691 1812 3710 1784 3710C 1767 3710 1750 3707 1746 3703z" stroke="none" fill="#000000" fill-rule="nonzero" />
        <path d="M2495 3564C 2492 3543 2485 3517 2479 3507C 2474 3497 2472 3485 2476 3479C 2479 3474 2477 3464 2472 3457C 2467 3450 2462 3438 2462 3430C 2461 3422 2458 3402 2455 3385C 2452 3369 2449 3348 2448 3340C 2448 3332 2443 3320 2438 3313C 2433 3306 2431 3296 2435 3290C 2439 3284 2436 3273 2430 3265C 2424 3257 2421 3246 2425 3240C 2429 3234 2426 3223 2420 3215C 2414 3207 2411 3196 2414 3191C 2418 3186 2415 3178 2409 3175C 2404 3171 2401 3161 2404 3153C 2408 3144 2405 3131 2399 3124C 2393 3117 2391 3106 2395 3100C 2399 3094 2396 3083 2390 3075C 2384 3067 2381 3056 2385 3050C 2389 3044 2386 3033 2380 3025C 2374 3017 2371 3006 2374 3001C 2378 2996 2376 2988 2370 2985C 2364 2981 2362 2970 2365 2960C 2368 2950 2366 2939 2360 2935C 2354 2931 2352 2920 2355 2910C 2358 2900 2356 2889 2350 2885C 2344 2881 2342 2870 2345 2860C 2348 2850 2346 2839 2340 2835C 2334 2831 2332 2820 2335 2810C 2338 2800 2336 2789 2330 2785C 2324 2781 2322 2770 2325 2760C 2328 2750 2326 2739 2320 2735C 2314 2731 2312 2720 2315 2710C 2318 2700 2316 2689 2310 2685C 2304 2681 2302 2670 2305 2659C 2309 2648 2307 2640 2300 2640C 2293 2640 2290 2632 2293 2620C 2296 2609 2294 2597 2289 2594C 2283 2591 2282 2580 2285 2570C 2288 2560 2286 2549 2280 2545C 2274 2541 2272 2530 2275 2520C 2278 2510 2276 2499 2270 2495C 2264 2491 2262 2480 2265 2470C 2268 2460 2266 2449 2260 2445C 2254 2441 2252 2430 2255 2420C 2258 2410 2256 2399 2250 2395C 2244 2391 2242 2380 2245 2370C 2248 2360 2246 2349 2240 2345C 2234 2341 2232 2330 2235 2320C 2238 2310 2236 2299 2230 2295C 2224 2291 2222 2280 2225 2269C 2229 2258 2227 2250 2220 2250C 2213 2250 2210 2242 2213 2230C 2216 2219 2214 2207 2208 2204C 2203 2201 2200 2189 2203 2179C 2206 2169 2204 2157 2198 2154C 2193 2151 2190 2139 2193 2129C 2196 2119 2194 2107 2189 2104C 2183 2101 2182 2090 2185 2080C 2188 2070 2186 2059 2180 2055C 2174 2051 2172 2040 2175 2030C 2178 2020 2176 2009 2170 2005C 2164 2001 2162 1990 2165 1980C 2168 1970 2166 1959 2160 1955C 2154 1951 2152 1940 2155 1930C 2158 1920 2156 1909 2150 1905C 2144 1901 2142 1890 2145 1880C 2148 1870 2146 1859 2140 1855C 2134 1851 2131 1842 2134 1834C 2137 1827 2135 1818 2129 1814C 2124 1811 2122 1800 2125 1790C 2128 1780 2126 1769 2120 1765C 2114 1761 2112 1750 2115 1740C 2118 1730 2116 1719 2110 1715C 2104 1711 2102 1700 2105 1690C 2108 1680 2106 1669 2101 1666C 2096 1662 2093 1647 2095 1632C 2097 1617 2099 1601 2099 1595C 2100 1590 2105 1592 2110 1600C 2115 1608 2120 1611 2120 1606C 2120 1600 2127 1605 2136 1616C 2144 1626 2149 1628 2145 1620C 2141 1612 2148 1616 2159 1630C 2170 1644 2180 1651 2180 1646C 2180 1640 2187 1645 2196 1656C 2204 1666 2209 1668 2205 1660C 2201 1650 2203 1651 2213 1662C 2221 1672 2230 1677 2233 1673C 2237 1670 2242 1675 2246 1684C 2249 1693 2256 1697 2261 1694C 2266 1691 2270 1694 2270 1700C 2270 1706 2275 1708 2280 1705C 2286 1702 2290 1704 2290 1710C 2290 1716 2295 1718 2300 1715C 2306 1712 2310 1713 2310 1719C 2310 1725 2317 1727 2325 1724C 2333 1720 2340 1723 2340 1730C 2340 1736 2345 1738 2350 1735C 2356 1732 2360 1734 2360 1740C 2360 1747 2368 1749 2380 1745C 2392 1741 2400 1743 2400 1750C 2400 1757 2407 1759 2416 1756C 2425 1753 2437 1753 2443 1757C 2460 1768 2673 1769 2687 1758C 2694 1752 2704 1751 2710 1755C 2715 1758 2720 1756 2720 1750C 2720 1744 2725 1742 2731 1745C 2737 1749 2748 1744 2756 1734C 2765 1723 2769 1722 2765 1730C 2761 1738 2768 1734 2780 1720C 2792 1706 2798 1702 2794 1710C 2789 1720 2794 1719 2808 1706C 2820 1696 2827 1683 2824 1679C 2821 1674 2826 1667 2834 1664C 2843 1661 2848 1654 2845 1650C 2842 1646 2847 1639 2856 1636C 2864 1633 2868 1626 2865 1620C 2862 1615 2864 1610 2870 1610C 2877 1610 2880 1603 2876 1595C 2873 1587 2875 1580 2881 1580C 2887 1580 2888 1575 2885 1570C 2881 1564 2884 1553 2890 1545C 2896 1537 2899 1526 2895 1520C 2892 1515 2892 1505 2895 1499C 2905 1485 2905 1266 2896 1251C 2891 1244 2891 1227 2894 1213C 2898 1200 2896 1182 2890 1174C 2883 1167 2881 1156 2885 1150C 2889 1144 2886 1133 2880 1125C 2874 1117 2871 1106 2874 1101C 2878 1096 2876 1088 2870 1085C 2864 1081 2862 1070 2865 1059C 2869 1048 2867 1040 2860 1040C 2853 1040 2850 1033 2854 1025C 2857 1017 2855 1010 2849 1010C 2843 1010 2840 1003 2844 995C 2847 987 2845 980 2839 980C 2833 980 2830 973 2834 965C 2837 957 2835 950 2829 950C 2823 950 2820 943 2824 935C 2827 927 2825 920 2820 920C 2815 920 2813 913 2816 905C 2820 897 2817 890 2810 890C 2804 890 2802 886 2805 880C 2808 875 2806 870 2800 870C 2794 870 2792 865 2795 860C 2798 854 2796 850 2790 850C 2784 850 2782 846 2785 840C 2788 835 2786 830 2780 830C 2774 830 2772 825 2775 820C 2778 814 2776 810 2770 810C 2764 810 2762 805 2765 800C 2768 794 2766 790 2760 790C 2754 790 2751 786 2754 781C 2757 776 2753 769 2745 766C 2737 763 2731 757 2732 752C 2734 747 2724 733 2710 721C 2696 708 2692 702 2700 706C 2708 710 2702 699 2686 682C 2670 665 2653 653 2649 656C 2644 658 2633 649 2624 635C 2615 622 2604 613 2599 616C 2594 619 2587 614 2584 606C 2581 597 2574 593 2569 596C 2564 599 2560 596 2560 590C 2560 584 2556 582 2550 585C 2545 588 2540 587 2540 581C 2540 575 2533 573 2525 576C 2517 580 2510 577 2510 570C 2510 563 2502 561 2490 565C 2479 568 2470 567 2470 562C 2470 550 2251 552 2232 564C 2225 568 2216 568 2210 565C 2205 562 2200 564 2200 570C 2200 577 2193 580 2185 576C 2177 573 2170 575 2170 581C 2170 587 2166 588 2160 585C 2155 582 2150 584 2150 590C 2150 597 2143 600 2135 596C 2127 593 2120 595 2120 601C 2120 607 2116 609 2111 606C 2106 603 2099 607 2096 616C 2092 625 2087 630 2084 627C 2080 624 2069 631 2058 643C 2047 655 2041 658 2045 650C 2048 642 2030 658 2003 686C 1972 718 1949 735 1937 732C 1928 730 1922 724 1925 719C 1929 714 1926 710 1920 710C 1913 710 1910 703 1913 695C 1917 687 1915 678 1909 675C 1904 671 1902 664 1906 659C 1909 654 1906 643 1900 635C 1894 627 1891 616 1895 610C 1899 604 1897 593 1891 586C 1885 579 1882 565 1886 556C 1889 547 1887 540 1880 540C 1873 540 1871 532 1875 521C 1878 510 1876 499 1870 495C 1864 491 1862 480 1865 470C 1868 460 1866 449 1860 445C 1854 441 1852 430 1855 419C 1859 408 1857 400 1850 400C 1843 400 1841 392 1845 381C 1848 370 1846 359 1840 355C 1834 351 1831 341 1834 333C 1838 324 1836 312 1830 305C 1824 298 1820 288 1821 284C 1822 279 1821 273 1820 270C 1819 267 1816 246 1814 222C 1812 198 1803 153 1795 120C 1773 36 1775 10 1803 9C 1993 3 2051 4 2056 12C 2059 17 2075 18 2090 15C 2106 11 2121 13 2125 20C 2129 26 2145 28 2165 24C 2185 21 2200 23 2205 30C 2209 36 2220 38 2231 35C 2242 31 2250 33 2250 40C 2250 47 2258 49 2270 45C 2282 41 2290 43 2290 50C 2290 57 2298 59 2310 55C 2322 51 2330 53 2330 60C 2330 67 2338 69 2350 65C 2362 61 2370 63 2370 70C 2370 77 2378 79 2390 75C 2401 71 2410 73 2410 79C 2410 85 2417 87 2425 84C 2433 80 2440 83 2440 89C 2440 95 2447 97 2455 94C 2463 90 2470 93 2470 100C 2470 106 2474 109 2479 105C 2484 102 2491 104 2495 110C 2499 116 2506 118 2511 115C 2516 111 2520 114 2520 120C 2520 127 2527 130 2535 126C 2543 123 2550 125 2550 131C 2550 137 2557 140 2565 136C 2573 133 2580 135 2580 141C 2580 147 2585 148 2590 145C 2596 142 2600 144 2600 150C 2600 156 2605 158 2610 155C 2616 152 2620 154 2620 160C 2620 166 2625 168 2630 165C 2636 162 2640 163 2640 169C 2640 175 2647 176 2657 173C 2669 168 2671 170 2665 180C 2659 190 2661 192 2673 187C 2683 184 2690 185 2690 191C 2690 197 2695 198 2700 195C 2706 192 2710 194 2710 200C 2710 206 2715 208 2720 205C 2726 202 2730 204 2730 210C 2730 216 2735 218 2740 215C 2746 212 2750 214 2750 221C 2750 228 2753 230 2757 227C 2760 223 2769 228 2777 238C 2787 249 2789 250 2785 240C 2781 230 2783 231 2793 242C 2801 252 2810 257 2813 253C 2817 250 2820 252 2820 259C 2820 266 2825 268 2830 265C 2836 262 2843 266 2846 274C 2849 283 2856 287 2861 284C 2866 281 2870 284 2870 289C 2870 295 2874 299 2879 297C 2884 296 2896 304 2905 315C 2914 326 2919 328 2915 320C 2911 312 2916 314 2925 325C 2934 336 2945 345 2951 345C 2956 345 2965 352 2970 360C 2975 368 2980 371 2980 365C 2980 360 2992 369 3006 385C 3020 402 3028 408 3025 400C 3021 392 3033 401 3050 420C 3067 439 3078 448 3075 440C 3071 432 3089 448 3114 475C 3140 503 3158 518 3154 510C 3150 502 3166 513 3189 535C 3211 556 3230 578 3230 583C 3230 589 3247 608 3268 627C 3288 646 3298 658 3290 655C 3282 651 3289 661 3305 676C 3322 691 3335 707 3335 711C 3335 715 3346 728 3360 740C 3374 752 3378 759 3370 755C 3362 751 3369 761 3385 775C 3402 790 3408 799 3400 795C 3392 791 3396 798 3410 810C 3424 822 3428 829 3420 825C 3412 821 3416 828 3430 840C 3444 852 3448 859 3440 855C 3430 851 3431 853 3442 863C 3452 871 3457 880 3453 883C 3450 887 3455 892 3464 896C 3473 899 3477 906 3474 911C 3471 916 3474 920 3480 920C 3486 920 3488 925 3485 930C 3482 936 3484 940 3490 940C 3496 940 3499 944 3496 949C 3493 954 3497 961 3506 964C 3514 967 3518 974 3515 980C 3512 985 3514 990 3520 990C 3526 990 3528 995 3525 1000C 3522 1006 3524 1010 3530 1010C 3536 1010 3538 1015 3535 1020C 3532 1026 3534 1030 3540 1030C 3546 1030 3548 1035 3545 1040C 3542 1045 3544 1050 3550 1050C 3556 1050 3558 1055 3555 1060C 3552 1066 3554 1070 3560 1070C 3567 1070 3570 1077 3566 1085C 3563 1093 3565 1100 3571 1100C 3577 1100 3578 1105 3575 1110C 3572 1116 3574 1120 3580 1120C 3586 1120 3588 1124 3585 1130C 3582 1135 3584 1140 3590 1140C 3596 1140 3598 1144 3595 1150C 3592 1155 3594 1160 3600 1160C 3607 1160 3610 1167 3606 1175C 3603 1183 3605 1190 3611 1190C 3617 1190 3620 1197 3616 1205C 3613 1213 3615 1220 3620 1220C 3625 1220 3627 1227 3624 1235C 3620 1243 3623 1250 3629 1250C 3635 1250 3637 1257 3634 1265C 3630 1273 3633 1280 3639 1280C 3645 1280 3647 1287 3644 1295C 3640 1303 3643 1310 3650 1310C 3657 1310 3660 1317 3657 1325C 3653 1333 3655 1342 3660 1345C 3665 1348 3667 1357 3663 1365C 3660 1373 3663 1380 3670 1380C 3677 1380 3680 1387 3677 1395C 3673 1403 3675 1412 3681 1416C 3687 1419 3689 1429 3686 1437C 3682 1446 3685 1459 3691 1466C 3697 1473 3699 1484 3695 1490C 3691 1496 3694 1507 3700 1515C 3706 1523 3709 1534 3705 1540C 3701 1546 3704 1557 3710 1565C 3717 1574 3719 1591 3716 1605C 3712 1619 3713 1636 3717 1643C 3736 1673 3736 2026 3717 2057C 3713 2064 3712 2080 3716 2093C 3719 2107 3717 2121 3711 2125C 3705 2128 3703 2142 3706 2155C 3709 2167 3707 2181 3700 2185C 3694 2189 3692 2200 3695 2210C 3698 2220 3696 2231 3690 2235C 3684 2239 3682 2250 3685 2260C 3688 2270 3686 2281 3681 2284C 3675 2288 3673 2297 3677 2305C 3680 2313 3677 2320 3670 2320C 3663 2320 3661 2328 3665 2340C 3669 2351 3667 2360 3661 2360C 3655 2360 3653 2367 3656 2375C 3660 2383 3657 2390 3650 2390C 3643 2390 3640 2397 3643 2405C 3647 2413 3645 2422 3639 2425C 3634 2429 3632 2436 3635 2441C 3639 2446 3636 2450 3630 2450C 3623 2450 3620 2457 3624 2465C 3627 2473 3625 2480 3620 2480C 3615 2480 3613 2487 3616 2495C 3620 2503 3617 2510 3611 2510C 3605 2510 3603 2517 3606 2525C 3610 2533 3607 2540 3600 2540C 3594 2540 3592 2545 3595 2550C 3598 2556 3596 2560 3590 2560C 3584 2560 3582 2565 3585 2570C 3588 2576 3586 2580 3580 2580C 3574 2580 3572 2585 3575 2590C 3578 2596 3576 2600 3570 2600C 3563 2600 3560 2607 3564 2615C 3567 2623 3565 2630 3559 2630C 3553 2630 3552 2635 3555 2640C 3558 2646 3556 2650 3550 2650C 3544 2650 3542 2655 3545 2660C 3548 2666 3546 2670 3540 2670C 3534 2670 3532 2675 3535 2680C 3538 2686 3536 2690 3530 2690C 3524 2690 3522 2695 3525 2700C 3528 2706 3526 2710 3519 2710C 3512 2710 3510 2713 3513 2717C 3517 2720 3512 2729 3502 2737C 3491 2747 3490 2749 3500 2745C 3510 2741 3509 2743 3498 2753C 3488 2761 3483 2770 3487 2773C 3490 2777 3487 2780 3480 2780C 3473 2780 3470 2783 3473 2787C 3477 2790 3472 2799 3462 2807C 3451 2817 3450 2819 3460 2815C 3468 2811 3466 2816 3456 2824C 3445 2833 3440 2840 3446 2840C 3451 2840 3447 2845 3437 2851C 3428 2857 3422 2865 3425 2871C 3429 2876 3426 2880 3420 2880C 3414 2880 3411 2884 3415 2889C 3418 2895 3411 2904 3400 2910C 3389 2916 3382 2925 3385 2930C 3388 2935 3381 2944 3370 2950C 3359 2956 3351 2964 3353 2969C 3354 2974 3344 2987 3330 2999C 3316 3012 3312 3019 3320 3015C 3328 3011 3318 3023 3298 3040C 3277 3058 3260 3077 3260 3084C 3260 3098 3149 3210 3135 3210C 3130 3210 3108 3229 3087 3253C 3066 3276 3052 3288 3055 3280C 3059 3272 3047 3281 3030 3300C 3013 3319 3001 3328 3005 3320C 3009 3312 3002 3316 2990 3330C 2978 3344 2964 3355 2959 3355C 2955 3355 2944 3364 2935 3375C 2926 3386 2921 3388 2925 3380C 2929 3370 2927 3371 2917 3382C 2909 3392 2900 3397 2897 3393C 2893 3390 2888 3395 2884 3404C 2881 3413 2874 3418 2870 3415C 2866 3412 2859 3417 2856 3426C 2853 3434 2846 3438 2840 3435C 2835 3432 2830 3434 2830 3440C 2830 3446 2826 3448 2820 3445C 2815 3442 2810 3444 2810 3450C 2810 3456 2805 3458 2800 3455C 2794 3452 2787 3456 2784 3464C 2781 3473 2774 3477 2769 3474C 2764 3471 2760 3474 2760 3480C 2760 3486 2756 3488 2750 3485C 2745 3482 2740 3484 2740 3490C 2740 3496 2736 3498 2730 3495C 2725 3492 2720 3494 2720 3500C 2720 3506 2716 3508 2710 3505C 2705 3502 2700 3504 2700 3510C 2700 3516 2696 3518 2690 3515C 2685 3512 2680 3514 2680 3520C 2680 3526 2676 3528 2670 3525C 2665 3522 2660 3524 2660 3530C 2660 3536 2656 3538 2650 3535C 2645 3532 2640 3533 2640 3539C 2640 3545 2633 3547 2625 3544C 2617 3540 2610 3543 2610 3550C 2610 3556 2606 3558 2600 3555C 2595 3552 2590 3554 2590 3560C 2590 3566 2586 3568 2580 3565C 2575 3562 2570 3564 2570 3570C 2570 3577 2563 3580 2555 3576C 2547 3573 2540 3575 2540 3581C 2540 3587 2535 3588 2529 3584C 2523 3581 2514 3583 2510 3591C 2504 3599 2499 3590 2495 3564z" stroke="none" fill="#000000" fill-rule="nonzero" />
        <path d="M1590 2866C 1590 2861 1588 2859 1585 2862C 1577 2869 1503 2797 1507 2787C 1510 2783 1504 2777 1496 2774C 1487 2771 1483 2764 1486 2759C 1489 2754 1486 2750 1480 2750C 1474 2750 1472 2746 1475 2740C 1478 2735 1476 2730 1470 2730C 1463 2730 1460 2723 1464 2715C 1467 2707 1465 2700 1459 2700C 1453 2700 1451 2696 1455 2691C 1458 2686 1456 2679 1451 2675C 1445 2672 1443 2663 1447 2655C 1450 2647 1447 2640 1441 2640C 1435 2640 1433 2633 1436 2625C 1440 2617 1437 2610 1430 2610C 1423 2610 1421 2602 1425 2591C 1428 2580 1426 2569 1420 2565C 1414 2561 1412 2550 1415 2539C 1419 2528 1417 2520 1410 2520C 1402 2520 1400 2511 1404 2496C 1407 2484 1406 2470 1402 2466C 1398 2462 1394 2444 1392 2427C 1391 2409 1387 2364 1384 2327C 1381 2290 1381 2252 1384 2244C 1387 2236 1390 2226 1391 2222C 1392 2218 1400 2209 1409 2202C 1421 2192 1421 2190 1410 2196C 1397 2203 1397 2201 1409 2187C 1416 2178 1426 2173 1431 2176C 1436 2179 1440 2177 1440 2173C 1440 2168 1458 2165 1480 2165C 1502 2165 1520 2168 1520 2173C 1520 2177 1525 2178 1530 2175C 1536 2172 1540 2174 1540 2180C 1540 2186 1545 2188 1550 2185C 1556 2182 1560 2184 1560 2189C 1560 2195 1564 2199 1568 2198C 1579 2194 1639 2257 1632 2264C 1629 2267 1632 2270 1639 2270C 1646 2270 1648 2275 1645 2280C 1642 2286 1644 2290 1650 2290C 1657 2290 1660 2297 1657 2305C 1653 2313 1655 2322 1660 2325C 1665 2328 1667 2337 1663 2345C 1660 2353 1663 2360 1670 2360C 1677 2360 1680 2367 1677 2375C 1673 2383 1675 2392 1681 2396C 1686 2399 1688 2410 1685 2421C 1681 2432 1683 2440 1690 2440C 1697 2440 1699 2448 1695 2459C 1692 2470 1694 2481 1700 2485C 1706 2489 1708 2500 1705 2511C 1701 2522 1703 2530 1710 2530C 1717 2530 1719 2538 1715 2549C 1712 2560 1714 2571 1720 2575C 1726 2579 1728 2590 1725 2600C 1722 2610 1724 2621 1730 2625C 1736 2628 1738 2636 1734 2641C 1731 2646 1734 2657 1740 2665C 1746 2673 1749 2684 1745 2690C 1742 2695 1742 2706 1747 2713C 1751 2719 1755 2730 1755 2735C 1756 2741 1760 2753 1764 2763C 1771 2777 1764 2791 1735 2820C 1714 2842 1693 2857 1688 2854C 1684 2851 1680 2854 1680 2860C 1680 2866 1676 2868 1670 2865C 1665 2862 1660 2863 1660 2867C 1660 2872 1644 2876 1625 2876C 1606 2876 1590 2872 1590 2866z" stroke="none" fill="#000000" fill-rule="nonzero" />
        <path d="M2180 1498C 2180 1493 2176 1492 2170 1495C 2165 1498 2160 1496 2160 1491C 2160 1485 2157 1481 2152 1483C 2142 1486 2071 1412 2078 1405C 2081 1402 2078 1400 2072 1400C 2066 1400 2063 1393 2066 1385C 2070 1377 2067 1370 2060 1370C 2053 1370 2050 1363 2053 1355C 2057 1347 2055 1338 2049 1334C 2043 1331 2041 1322 2044 1314C 2047 1307 2045 1298 2039 1294C 2033 1291 2031 1282 2034 1274C 2037 1267 2035 1258 2029 1254C 2024 1251 2022 1240 2025 1229C 2029 1218 2027 1210 2020 1210C 2013 1210 2011 1202 2015 1191C 2018 1180 2016 1169 2010 1165C 2004 1161 2002 1150 2005 1140C 2008 1130 2006 1119 2000 1115C 1994 1111 1992 1100 1995 1090C 1998 1080 1996 1069 1990 1065C 1984 1061 1981 1051 1984 1043C 1988 1034 1985 1021 1979 1014C 1973 1007 1971 996 1975 990C 1979 984 1976 973 1970 965C 1964 957 1961 946 1965 941C 1968 935 1966 922 1961 912C 1953 896 1958 886 1992 854C 2014 833 2030 822 2026 830C 2021 839 2024 839 2033 828C 2041 818 2050 813 2053 817C 2057 820 2066 817 2075 810C 2086 801 2093 800 2103 809C 2111 815 2120 817 2123 813C 2127 810 2130 812 2130 819C 2130 826 2135 828 2140 825C 2146 822 2150 824 2150 831C 2150 838 2153 840 2157 837C 2166 828 2200 860 2200 877C 2200 884 2207 893 2215 896C 2223 900 2228 906 2225 910C 2222 914 2227 921 2236 924C 2244 927 2249 934 2245 939C 2242 944 2244 951 2250 955C 2256 959 2258 966 2255 971C 2251 976 2253 980 2259 980C 2265 980 2267 987 2264 995C 2260 1003 2263 1010 2269 1010C 2275 1010 2277 1017 2274 1025C 2270 1033 2273 1040 2280 1040C 2286 1040 2289 1044 2285 1049C 2282 1054 2285 1062 2291 1065C 2296 1069 2299 1078 2296 1086C 2293 1093 2295 1102 2301 1106C 2307 1109 2309 1119 2306 1127C 2302 1136 2305 1149 2311 1156C 2317 1163 2319 1174 2315 1180C 2312 1185 2312 1196 2317 1203C 2331 1225 2340 1440 2326 1440C 2322 1440 2320 1447 2324 1455C 2327 1463 2325 1470 2319 1470C 2313 1470 2311 1474 2315 1479C 2318 1484 2315 1492 2308 1497C 2290 1508 2180 1509 2180 1498z" stroke="none" fill="#000000" fill-rule="nonzero" />
	</g>
</g>
</svg>