<?xml version="1.0" standalone="no"?>
<!DOCTYPE svg PUBLIC "-//W3C//DTD SVG 20010904//EN"
 "http://www.w3.org/TR/2001/REC-SVG-20010904/DTD/svg10.dtd">
<svg version="1.0" xmlns="http://www.w3.org/2000/svg"
 width="225.000000pt" height="225.000000pt" viewBox="0 0 225.000000 225.000000"
 preserveAspectRatio="xMidYMid meet">

<g transform="translate(0.000000,225.000000) scale(0.100000,-0.100000)"
fill="#000000" stroke="none">
<path d="M948 2128 l-58 -10 0 -75 c0 -63 2 -74 15 -69 82 31 346 32 460 1
159 -43 352 -169 455 -298 60 -75 143 -239 165 -326 124 -493 -179 -984 -671
-1086 -120 -25 -310 -20 -406 11 -16 5 -18 -3 -18 -70 l0 -75 48 -8 c26 -4
124 -8 217 -7 154 1 178 3 258 27 344 105 598 358 704 704 25 81 27 102 27
273 1 165 -2 194 -22 265 -30 106 -108 265 -165 341 -149 196 -383 348 -610
395 -101 21 -298 24 -399 7z"/>
<path d="M661 2025 c-115 -62 -163 -99 -263 -203 -133 -138 -222 -306 -260
-492 -26 -126 -21 -345 11 -464 74 -276 271 -520 523 -647 43 -21 80 -39 83
-39 3 0 5 33 5 74 l0 74 -57 32 c-90 50 -189 135 -254 217 -65 82 -139 224
-164 318 -22 81 -31 293 -16 381 45 253 211 489 434 614 l57 32 0 74 c0 41 -3
74 -7 74 -5 0 -46 -21 -92 -45z"/>
<path d="M1265 1641 l-360 -117 -3 -402 c-2 -317 0 -403 10 -406 21 -7 576
-185 657 -212 40 -13 78 -21 82 -18 5 3 9 291 9 640 0 597 -1 634 -17 633 -10
0 -180 -53 -378 -118z"/>
<path d="M435 1497 c-3 -6 -4 -183 -3 -392 l3 -380 140 -3 c77 -1 150 0 163 3
l22 5 0 378 c0 281 -3 381 -12 390 -17 17 -307 17 -313 -1z"/>
</g>
</svg>
