<?xml version="1.0" standalone="no"?>
<!DOCTYPE svg PUBLIC "-//W3C//DTD SVG 1.0//EN" "http://www.w3.org/TR/2001/REC-SVG-20010904/DTD/svg10.dtd">
<svg xmlns="http://www.w3.org/2000/svg" xmlns:xlink="http://www.w3.org/1999/xlink" id="body_1" width="231" height="79">

<g transform="matrix(0.33333334 0 0 0.33333334 0.33333334 -0)">
	<g transform="matrix(0.1 0 -0 -0.1 0 237)">
        <path d="M2766 2225C 2769 2145 2770 2080 2766 2080C 2762 2080 2743 2092 2725 2106C 2628 2179 2449 2177 2315 2100C 2245 2060 2175 1983 2139 1907C 2026 1665 2122 1388 2358 1277C 2420 1247 2433 1245 2530 1245C 2623 1245 2641 1248 2693 1272L2693 1272L2750 1299L2750 654L2750 10L2860 10L2970 10L2970 143C 2970 217 2973 279 2976 282C 2979 286 3012 274 3048 257C 3111 227 3122 225 3225 225C 3329 225 3339 227 3401 257C 3592 351 3684 561 3636 791C 3599 965 3485 1081 3307 1126C 3225 1148 3128 1140 3053 1106C 3023 1091 2996 1080 2994 1080C 2992 1080 2990 1370 2990 1725L2990 1725L2990 2370L2874 2370L2758 2370L2766 2225zM2628 1921C 2712 1877 2760 1799 2761 1702C 2764 1527 2594 1408 2445 1480C 2398 1503 2349 1557 2329 1606C 2310 1655 2315 1770 2338 1816C 2363 1864 2404 1904 2450 1924C 2500 1946 2583 1944 2628 1921zM3306 899C 3383 863 3430 779 3430 680C 3430 545 3331 439 3205 439C 3070 439 2980 534 2980 680C 2980 787 3034 874 3120 909C 3165 927 3257 922 3306 899z" stroke="none" fill="#000000" fill-rule="nonzero" />
        <path d="M1407 2150C 1277 2117 1179 2037 1118 1912L1118 1912L1075 1827L1075 1701C 1075 1594 1079 1567 1098 1519C 1151 1386 1245 1297 1372 1259C 1475 1227 1592 1235 1679 1278C 1714 1296 1760 1324 1781 1341C 1802 1358 1824 1369 1828 1366C 1833 1363 1854 1336 1875 1305C 1903 1265 1920 1250 1937 1250L1937 1250L1960 1250L1960 1690L1960 2130L1939 2130C 1919 2130 1840 2056 1840 2038C 1840 2022 1817 2031 1780 2060C 1759 2077 1711 2104 1674 2122C 1618 2148 1591 2154 1525 2156C 1481 2158 1428 2155 1407 2150zM1607 1919C 1685 1881 1740 1789 1740 1698C 1739 1528 1574 1412 1424 1475C 1320 1518 1269 1640 1300 1769C 1334 1910 1479 1981 1607 1919z" stroke="none" fill="#000000" fill-rule="nonzero" />
        <path d="M3338 2116C 3252 2093 3184 2030 3150 1943C 3133 1898 3141 1775 3165 1726C 3190 1674 3238 1628 3296 1600C 3338 1579 3361 1576 3499 1573C 3696 1568 3700 1567 3700 1531C 3700 1473 3690 1471 3399 1468L3399 1468L3135 1465L3135 1360L3135 1255L3425 1255L3715 1255L3766 1282C 3865 1334 3920 1423 3920 1530C 3920 1606 3899 1660 3849 1709C 3785 1773 3745 1784 3553 1790C 3438 1793 3377 1799 3369 1807C 3362 1814 3357 1834 3357 1851C 3357 1907 3368 1910 3629 1910L3629 1910L3865 1910L3863 2017L3861 2125L3623 2127C 3456 2128 3371 2125 3338 2116z" stroke="none" fill="#000000" fill-rule="nonzero" />
        <path d="M6670 845L6670 230L6780 230L6890 230L6890 845L6890 1460L6780 1460L6670 1460L6670 845z" stroke="none" fill="#000000" fill-rule="nonzero" />
        <path d="M35 1398C 32 1391 31 1126 32 810L32 810L35 235L150 232L265 229L265 347L265 465L435 471C 529 475 619 482 635 487C 739 522 855 611 904 694C 955 781 973 856 968 963C 963 1053 960 1067 922 1144C 852 1285 726 1378 574 1400C 469 1415 41 1413 35 1398zM605 1158C 650 1133 701 1080 721 1035C 761 949 732 818 662 758C 603 709 559 699 405 702L405 702L265 705L262 930C 261 1053 262 1161 265 1168C 273 1189 564 1181 605 1158z" stroke="none" fill="#000000" fill-rule="nonzero" />
        <path d="M2066 1129C 1957 1103 1839 1009 1784 904C 1740 821 1727 754 1732 645C 1738 530 1773 447 1852 364C 1946 264 2044 220 2174 220C 2431 220 2620 417 2620 685C 2620 853 2533 1012 2403 1083C 2308 1134 2170 1153 2066 1129zM2302 885C 2445 784 2430 535 2276 460C 2189 418 2083 437 2019 507C 1927 605 1929 767 2024 858C 2076 909 2109 920 2192 917C 2248 915 2266 909 2302 885z" stroke="none" fill="#000000" fill-rule="nonzero" />
        <path d="M4063 1125C 3890 1078 3766 934 3739 748C 3709 545 3808 351 3988 263C 4063 226 4066 225 4180 225C 4291 225 4298 226 4365 259C 4600 375 4695 661 4578 900C 4488 1084 4268 1180 4063 1125zM4275 901C 4356 864 4404 783 4404 680C 4404 610 4386 558 4346 512C 4243 395 4049 422 3981 563C 3955 617 3952 732 3976 788C 4022 899 4162 953 4275 901z" stroke="none" fill="#000000" fill-rule="nonzero" />
        <path d="M5920 1125C 5777 1084 5664 974 5619 829C 5596 754 5594 618 5615 537C 5666 340 5826 220 6037 220C 6126 220 6201 246 6287 306C 6321 330 6351 350 6354 350C 6356 350 6378 323 6401 290C 6432 246 6449 230 6466 230L6466 230L6490 230L6490 670L6490 1110L6468 1110C 6455 1110 6428 1090 6399 1058L6399 1058L6352 1007L6302 1043C 6216 1107 6145 1133 6055 1137C 6005 1139 5955 1134 5920 1125zM6123 906C 6164 888 6216 836 6241 788C 6301 670 6252 517 6135 460C 6020 404 5884 458 5833 577C 5815 621 5816 742 5836 788C 5880 895 6018 951 6123 906z" stroke="none" fill="#000000" fill-rule="nonzero" />
        <path d="M1095 1098C 1092 1091 1091 894 1092 660L1092 660L1095 235L1203 232L1310 229L1310 472C 1310 725 1316 777 1347 819C 1392 878 1411 885 1551 888L1551 888L1680 892L1680 1002L1680 1113L1548 1107C 1400 1102 1337 1086 1269 1040C 1245 1024 1222 1010 1219 1010C 1215 1010 1197 1032 1179 1060C 1145 1109 1106 1127 1095 1098z" stroke="none" fill="#000000" fill-rule="nonzero" />
        <path d="M4947 1099C 4808 1066 4722 952 4732 812C 4740 708 4791 631 4884 583C 4932 558 4946 556 5105 552C 5199 550 5281 543 5288 538C 5306 523 5303 493 5280 470C 5261 451 5247 450 4995 450L4995 450L4730 450L4730 339L4730 229L5018 232C 5286 235 5308 236 5351 256C 5452 303 5515 401 5514 510C 5513 611 5467 686 5379 735C 5326 764 5322 765 5155 768C 4969 772 4950 778 4950 830C 4950 887 4963 890 5223 890L5223 890L5460 890L5460 1000L5460 1110L5223 1109C 5092 1108 4968 1104 4947 1099z" stroke="none" fill="#000000" fill-rule="nonzero" />
	</g>
</g>
</svg>