<?xml version="1.0" standalone="no"?>
<!DOCTYPE svg PUBLIC "-//W3C//DTD SVG 20010904//EN"
 "http://www.w3.org/TR/2001/REC-SVG-20010904/DTD/svg10.dtd">
<svg version="1.0" xmlns="http://www.w3.org/2000/svg"
 width="312.000000pt" height="175.000000pt" viewBox="0 0 312.000000 175.000000"
 preserveAspectRatio="xMidYMid meet">

<g transform="translate(0.000000,175.000000) scale(0.100000,-0.100000)"
fill="#000000" stroke="none">
<path d="M481 1619 c-16 -35 -112 -234 -215 -443 -102 -208 -186 -382 -186
-387 0 -4 68 -49 152 -99 113 -68 153 -88 159 -78 32 55 23 57 193 -32 126
-66 160 -80 167 -69 7 11 11 10 23 -7 22 -30 68 -47 121 -42 l45 3 -6 -31
c-13 -69 57 -142 126 -132 25 4 29 0 39 -32 6 -20 24 -49 41 -65 28 -27 38
-30 99 -30 64 0 69 -2 80 -27 25 -56 107 -77 183 -45 32 14 36 13 47 -5 16
-26 71 -58 99 -58 42 0 79 27 96 71 16 39 18 41 51 35 49 -10 101 15 121 57
14 30 22 35 60 40 54 6 89 28 115 72 11 19 31 36 46 40 66 16 113 75 113 142
0 33 6 42 39 65 l38 27 18 -40 c10 -22 22 -42 26 -45 5 -3 78 31 162 76 85 44
156 80 159 80 3 0 11 -14 18 -31 8 -19 18 -28 27 -25 8 3 79 44 158 91 l144
85 -78 162 c-223 462 -361 739 -368 735 -5 -2 -84 -49 -178 -104 -93 -55 -237
-135 -320 -178 l-150 -79 -80 22 c-44 13 -132 34 -194 49 -99 22 -121 24 -158
15 -29 -8 -51 -9 -68 -2 -49 18 -91 10 -184 -35 l-93 -45 -157 81 c-86 45
-226 124 -312 175 -86 52 -164 96 -173 100 -12 5 -23 -8 -45 -57z m567 -286
c49 -27 62 -39 57 -51 -17 -46 -378 -722 -385 -722 -5 0 -69 32 -144 71 l-135
71 75 142 c41 77 129 245 196 373 l122 231 75 -40 c42 -23 104 -56 139 -75z
m1424 -251 c103 -196 188 -363 190 -370 2 -9 -49 -41 -133 -86 l-137 -73 -190
361 c-105 199 -192 367 -194 374 -3 11 242 150 267 151 6 0 94 -160 197 -357z
m-1019 267 c74 -38 151 -95 206 -153 51 -55 53 -59 48 -99 -9 -62 -102 -307
-118 -307 -22 0 -70 56 -80 93 -11 40 -1 143 17 191 4 10 1 16 -8 16 -7 0 -30
11 -50 25 l-37 25 -108 -84 c-109 -84 -447 -311 -441 -296 2 5 62 120 133 256
l130 247 110 53 c61 30 120 54 133 54 12 0 42 -10 65 -21z m294 -25 c98 -25
188 -48 199 -51 17 -4 61 -79 185 -315 90 -171 165 -316 167 -323 2 -7 -13
-24 -32 -39 l-35 -26 -26 25 c-35 35 -91 58 -125 50 -35 -8 -80 -51 -80 -76 0
-16 -4 -17 -26 -9 -39 15 -93 12 -125 -7 -29 -17 -59 -67 -59 -97 0 -11 -9
-16 -31 -16 -42 0 -87 -46 -95 -97 -5 -35 -9 -39 -30 -35 -60 11 -114 -42
-114 -112 0 -29 -5 -38 -30 -51 -56 -29 -113 -18 -135 25 l-14 27 129 87 c94
62 128 90 124 101 -4 8 -10 15 -15 15 -5 0 -71 -41 -147 -92 -112 -75 -145
-92 -183 -96 -40 -4 -50 -1 -78 24 -20 19 -33 40 -34 59 -2 27 6 35 138 117
77 49 147 93 155 98 13 8 13 11 0 24 -13 13 -32 5 -170 -81 -85 -53 -167 -100
-183 -105 -63 -23 -118 36 -92 99 16 38 39 56 202 155 73 44 133 84 133 88 0
4 -6 12 -13 18 -9 8 -46 -10 -142 -70 -167 -103 -215 -127 -270 -135 -63 -8
-95 14 -95 66 0 68 29 96 277 261 127 85 255 173 285 196 73 55 75 56 97 45
16 -9 17 -16 10 -53 -19 -99 -5 -172 44 -224 36 -38 83 -52 110 -32 10 7 36
63 58 123 76 204 81 232 55 284 -17 32 -131 141 -175 167 -17 10 -31 22 -31
26 0 15 40 8 217 -38z m389 -730 c38 -18 74 -69 74 -106 0 -33 -31 -72 -70
-88 -17 -7 -32 -11 -33 -9 -30 45 -60 95 -67 114 -12 32 5 79 33 93 29 14 24
14 63 -4z m-175 -75 c20 -11 109 -139 109 -157 0 -21 -52 -71 -80 -77 -46 -10
-62 0 -107 67 -50 76 -58 100 -42 130 24 46 75 62 120 37z m-159 -131 c23 -19
88 -120 88 -138 0 -36 -30 -60 -75 -60 -50 0 -64 11 -95 75 -24 49 -21 86 7
118 19 20 53 22 75 5z m-120 -158 c41 -44 44 -54 28 -96 -24 -62 -68 -69 -116
-18 -41 43 -47 101 -14 134 30 30 59 25 102 -20z"/>
<path d="M612 814 c-12 -8 -22 -23 -22 -33 0 -21 30 -51 52 -51 19 0 48 32 48
53 0 14 -35 47 -50 47 -3 0 -16 -7 -28 -16z"/>
<path d="M2458 823 c-20 -5 -34 -44 -25 -68 8 -20 54 -30 72 -15 22 18 19 67
-4 80 -11 5 -21 9 -23 9 -2 -1 -11 -3 -20 -6z"/>
</g>
</svg>
