<?xml version="1.0" standalone="no"?>
<!DOCTYPE svg PUBLIC "-//W3C//DTD SVG 1.0//EN" "http://www.w3.org/TR/2001/REC-SVG-20010904/DTD/svg10.dtd">
<svg xmlns="http://www.w3.org/2000/svg" xmlns:xlink="http://www.w3.org/1999/xlink" id="body_1" width="218" height="117">

<g transform="matrix(0.3196481 0 0 0.3196481 -0 0.008798907)">
	<g transform="matrix(0.1 0 -0 -0.1 0 366)">
        <path d="M3120 3559L3015 3522L3012 3141C 3011 2932 3006 2760 3002 2760C 2997 2760 2972 2767 2946 2776C 2795 2827 2593 2733 2481 2561C 2394 2426 2356 2206 2395 2060C 2426 1943 2427 1952 2377 1930C 2347 1917 2321 1912 2305 1916C 2250 1930 2250 1933 2250 2509L2250 2509L2250 3039L2131 2999L2013 2959L2007 2822C 1993 2481 1883 2109 1760 1982C 1712 1933 1685 1920 1629 1920C 1490 1920 1409 2085 1423 2339C 1434 2548 1506 2713 1654 2869C 1769 2989 1912 3072 2073 3112L2073 3112L2160 3133L2160 3167L2160 3201L2108 3195C 1833 3163 1607 3053 1433 2866C 1264 2686 1179 2481 1178 2255C 1177 2091 1216 1976 1302 1893C 1364 1832 1428 1807 1530 1802C 1651 1796 1713 1821 1800 1909C 1877 1986 1927 2080 1967 2225C 1982 2277 1997 2320 2001 2320C 2005 2320 2010 2242 2013 2148C 2016 2041 2023 1960 2031 1935C 2065 1837 2168 1786 2282 1809C 2339 1821 2424 1869 2434 1895C 2442 1918 2458 1913 2496 1876C 2553 1821 2613 1797 2700 1796C 2759 1795 2784 1800 2816 1817C 2869 1845 2925 1903 2962 1967C 2999 2033 3010 2040 3010 2000C 3010 1946 3032 1880 3059 1851C 3117 1789 3245 1788 3318 1848L3318 1848L3353 1875L3415 1844C 3628 1737 3859 1807 3953 2008C 3979 2065 3984 2086 3984 2155C 3984 2303 3949 2367 3806 2490C 3713 2569 3710 2573 3725 2594C 3776 2665 3794 2705 3794 2751C 3795 2791 3790 2804 3767 2827C 3743 2851 3732 2855 3676 2855C 3599 2855 3566 2836 3533 2770C 3505 2716 3502 2614 3526 2544C 3534 2519 3539 2492 3536 2484C 3533 2477 3501 2429 3464 2379L3464 2379L3397 2288L3421 2269C 3434 2259 3450 2250 3455 2251C 3461 2251 3492 2291 3525 2340C 3558 2389 3588 2430 3591 2430C 3608 2430 3834 2202 3852 2167C 3918 2037 3788 1888 3647 1930C 3618 1938 3586 1961 3541 2006C 3506 2042 3477 2070 3476 2068C 3448 2025 3404 1980 3394 1984C 3387 1987 3367 1976 3349 1959C 3314 1926 3270 1921 3249 1947C 3237 1960 3234 2108 3230 2779L3230 2779L3225 3596L3120 3559zM3691 2780C 3723 2763 3714 2705 3672 2657C 3657 2640 3656 2640 3643 2662C 3624 2697 3626 2767 3648 2779C 3669 2792 3668 2792 3691 2780zM2933 2656C 2951 2649 2976 2632 2989 2619L2989 2619L3013 2596L3007 2406C 2998 2122 2958 1991 2867 1949C 2705 1876 2587 2018 2588 2282C 2590 2453 2673 2616 2781 2659C 2817 2673 2896 2672 2933 2656z" stroke="none" fill="#000000" fill-rule="nonzero" />
        <path d="M6445 2431L6345 2394L6345 1594C 6345 847 6346 793 6363 759C 6388 708 6446 678 6520 678C 6589 678 6635 698 6689 750C 6743 803 6753 823 6735 846C 6721 865 6721 864 6706 844C 6687 818 6640 797 6609 802C 6560 809 6560 801 6560 1663C 6560 2107 6557 2470 6553 2469C 6548 2468 6500 2451 6445 2431z" stroke="none" fill="#000000" fill-rule="nonzero" />
        <path d="M586 2074C 424 2042 271 1972 126 1863C 41 1799 40 1799 56 1774C 65 1761 76 1750 81 1750C 86 1750 118 1771 152 1796C 392 1973 684 2022 838 1911C 951 1828 981 1632 903 1474C 834 1332 664 1211 478 1170C 446 1163 420 1153 420 1149C 420 1145 417 1134 413 1124C 407 1108 414 1107 506 1113C 720 1126 947 1240 1073 1397C 1101 1431 1126 1460 1130 1460C 1134 1460 1147 1449 1159 1436L1159 1436L1181 1412L1115 1281L1049 1149L1084 1135C 1104 1127 1121 1120 1123 1120C 1125 1120 1153 1178 1185 1249L1185 1249L1244 1377L1337 1372C 1410 1368 1440 1371 1476 1385C 1501 1394 1523 1400 1525 1398C 1528 1396 1511 1370 1489 1340C 1405 1228 1330 1030 1330 920C 1330 804 1393 704 1480 680C 1581 653 1704 689 1797 775C 1842 816 1844 819 1828 836C 1816 848 1807 850 1798 843C 1771 821 1708 808 1663 815C 1576 828 1510 921 1510 1029C 1511 1174 1604 1375 1733 1507C 1779 1555 1783 1562 1769 1575C 1755 1589 1746 1587 1677 1554C 1575 1506 1492 1498 1426 1529C 1374 1555 1325 1606 1300 1663L1300 1663L1283 1701L1234 1646C 1207 1615 1182 1590 1179 1590C 1175 1590 1177 1611 1182 1638C 1194 1698 1184 1788 1159 1856C 1118 1964 1001 2056 871 2080C 798 2094 670 2091 586 2074z" stroke="none" fill="#000000" fill-rule="nonzero" />
        <path d="M280 1780L175 1743L172 1202C 171 904 173 660 177 660C 191 660 375 722 383 729C 387 733 389 980 388 1277L388 1277L385 1818L280 1780z" stroke="none" fill="#000000" fill-rule="nonzero" />
        <path d="M4870 1708C 4817 1673 4790 1611 4790 1525C 4790 1486 4797 1433 4806 1408L4806 1408L4821 1362L4755 1270C 4719 1220 4687 1173 4684 1166C 4678 1151 4726 1116 4739 1125C 4744 1128 4774 1168 4806 1215C 4838 1262 4867 1300 4871 1300C 4874 1300 4931 1249 4995 1188C 5117 1072 5149 1024 5150 962C 5150 885 5079 808 4993 794C 4936 785 4875 816 4811 886C 4784 916 4759 940 4757 940C 4754 940 4722 899 4686 850L4686 850L4620 760L4665 731C 4735 687 4823 667 4923 672C 5031 678 5099 709 5169 785C 5236 859 5262 930 5262 1035C 5262 1181 5218 1254 5041 1401L5041 1401L4986 1446L5012 1481C 5079 1571 5093 1652 5047 1698C 5009 1736 4919 1741 4870 1708zM4980 1645C 4996 1626 4986 1573 4960 1540C 4940 1516 4939 1515 4925 1534C 4911 1553 4905 1586 4910 1620C 4915 1658 4957 1673 4980 1645z" stroke="none" fill="#000000" fill-rule="nonzero" />
        <path d="M2195 1647C 2089 1599 2052 1575 1974 1496C 1845 1367 1791 1229 1803 1060C 1820 809 2058 627 2312 669C 2419 686 2481 719 2561 799C 2670 908 2720 1032 2720 1196C 2720 1391 2631 1548 2476 1625L2476 1625L2428 1649L2351 1591C 2309 1559 2264 1521 2251 1506C 2228 1482 2228 1480 2246 1480C 2287 1480 2374 1428 2430 1370C 2496 1303 2542 1216 2560 1125C 2587 986 2521 843 2408 796C 2357 774 2265 776 2215 799C 2160 824 2088 906 2060 977C 2032 1049 2022 1197 2040 1279C 2064 1386 2142 1507 2239 1585C 2292 1627 2298 1638 2278 1658C 2262 1674 2253 1673 2195 1647z" stroke="none" fill="#000000" fill-rule="nonzero" />
        <path d="M4115 1647C 4008 1599 3972 1574 3894 1496C 3764 1367 3713 1239 3723 1068C 3731 914 3812 788 3949 716C 4214 577 4519 716 4615 1022C 4692 1266 4599 1524 4396 1625L4396 1625L4348 1649L4271 1591C 4229 1559 4184 1521 4171 1506C 4148 1482 4148 1480 4166 1480C 4206 1480 4294 1428 4349 1372C 4508 1209 4531 970 4398 843C 4353 799 4302 780 4233 780C 4156 781 4105 805 4048 869C 3973 952 3955 1010 3955 1166L3955 1166L3955 1297L3997 1381C 4038 1462 4103 1542 4179 1604C 4207 1626 4212 1635 4203 1648C 4188 1672 4171 1672 4115 1647z" stroke="none" fill="#000000" fill-rule="nonzero" />
        <path d="M2821 1649C 2764 1626 2680 1540 2680 1503C 2680 1476 2710 1478 2745 1509C 2787 1546 2823 1549 2844 1518C 2858 1498 2860 1412 2860 783L2860 783L2860 71L2968 110L3075 148L3081 716C 3085 1187 3089 1294 3102 1335C 3126 1414 3149 1457 3186 1490C 3215 1515 3229 1520 3271 1520C 3362 1520 3429 1469 3479 1360C 3500 1314 3505 1286 3508 1192C 3517 959 3448 803 3328 785C 3278 778 3208 799 3173 832L3173 832L3150 853L3135 817C 3127 796 3114 765 3106 746L3106 746L3092 712L3133 694C 3195 669 3303 665 3378 684C 3526 722 3631 833 3684 1010C 3707 1084 3716 1269 3701 1342C 3673 1476 3578 1600 3475 1639C 3327 1694 3200 1645 3117 1500L3117 1500L3086 1445L3073 1508C 3059 1579 3032 1623 2990 1645C 2958 1662 2858 1664 2821 1649z" stroke="none" fill="#000000" fill-rule="nonzero" />
        <path d="M5685 1637C 5423 1570 5248 1282 5289 985C 5309 847 5373 740 5466 694C 5521 667 5680 667 5729 694C 5777 720 5851 798 5880 853C 5894 879 5908 900 5911 900C 5915 900 5920 878 5922 851C 5933 743 5994 680 6088 680C 6160 680 6218 708 6270 767C 6314 817 6318 831 6295 850C 6282 861 6277 860 6267 848C 6247 823 6207 800 6183 800C 6134 800 6130 824 6130 1107C 6130 1252 6129 1370 6128 1370C 6126 1370 6078 1352 6020 1331L6020 1331L5915 1292L5909 1184C 5902 1069 5892 1018 5858 933C 5799 783 5611 754 5536 883C 5486 967 5466 1142 5491 1262C 5514 1370 5578 1468 5652 1506C 5695 1528 5780 1535 5825 1520C 5846 1513 5883 1487 5908 1463L5908 1463L5952 1418L6033 1452C 6077 1470 6115 1490 6117 1497C 6125 1520 6036 1596 5974 1620C 5903 1648 5761 1656 5685 1637z" stroke="none" fill="#000000" fill-rule="nonzero" />
	</g>
</g>
</svg>