<?xml version="1.0" standalone="no"?>
<!DOCTYPE svg PUBLIC "-//W3C//DTD SVG 1.0//EN" "http://www.w3.org/TR/2001/REC-SVG-20010904/DTD/svg10.dtd">
<svg xmlns="http://www.w3.org/2000/svg" xmlns:xlink="http://www.w3.org/1999/xlink" id="body_1" width="204" height="57">

<g transform="matrix(0.3058471 0 0 0.3058471 -0 0.41829032)">
	<g transform="matrix(0.1 0 -0 -0.1 0 185)">
        <path d="M2929 1685C 2911 1594 2891 1520 2885 1520C 2880 1520 2868 1535 2860 1553C 2827 1624 2720 1656 2617 1626C 2467 1582 2374 1433 2362 1218C 2356 1100 2363 1060 2397 1020C 2438 971 2476 956 2560 956C 2646 956 2714 981 2767 1032C 2785 1050 2802 1061 2805 1058C 2808 1055 2791 959 2766 844C 2741 729 2693 502 2660 340C 2626 178 2596 35 2593 22L2593 22L2588 0L2744 0C 2897 0 2900 0 2905 23C 2908 35 2921 99 2935 165C 2969 326 2964 319 3007 275C 3060 221 3120 196 3205 196C 3290 195 3339 218 3398 285C 3493 393 3544 674 3489 786C 3458 852 3412 875 3320 874C 3233 872 3177 854 3110 806C 3083 787 3060 773 3058 776C 3055 778 3063 826 3076 883C 3089 939 3111 1046 3125 1120C 3140 1194 3180 1389 3214 1553L3214 1553L3277 1850L3120 1850L2963 1850L2929 1685zM2852 1463L2877 1435L2845 1291C 2818 1168 2809 1143 2786 1123C 2735 1079 2687 1080 2670 1126C 2653 1170 2682 1345 2717 1415C 2757 1493 2807 1511 2852 1463zM3189 699C 3206 651 3179 487 3143 415C 3104 338 3050 318 3006 365L3006 365L2983 390L3012 532C 3039 663 3044 677 3073 703C 3095 722 3115 730 3141 730C 3173 730 3179 726 3189 699z" stroke="none" fill="#000000" fill-rule="nonzero" />
        <path d="M1840 1634C 1722 1613 1692 1606 1646 1589C 1595 1569 1593 1566 1582 1518C 1562 1436 1557 1440 1680 1440C 1768 1440 1790 1443 1790 1454C 1790 1481 1839 1528 1874 1534C 1909 1541 1959 1527 1972 1507C 1982 1492 1982 1398 1972 1384C 1968 1377 1910 1371 1820 1368C 1703 1363 1664 1358 1617 1340C 1510 1299 1460 1236 1460 1142C 1460 1072 1494 1011 1550 980C 1634 934 1775 954 1858 1025C 1880 1044 1903 1060 1909 1060C 1914 1060 1925 1039 1932 1013L1932 1013L1946 965L2067 962C 2176 960 2189 961 2194 977C 2209 1027 2269 1323 2275 1375C 2289 1497 2237 1582 2130 1614C 2077 1631 1891 1643 1840 1634zM1945 1258C 1930 1169 1915 1136 1881 1113C 1815 1069 1750 1096 1750 1168C 1750 1243 1816 1299 1903 1300L1903 1300L1952 1300L1945 1258z" stroke="none" fill="#000000" fill-rule="nonzero" />
        <path d="M3595 1634C 3488 1613 3459 1605 3420 1585C 3366 1557 3336 1527 3315 1478C 3294 1425 3296 1365 3322 1318C 3350 1269 3387 1246 3471 1225C 3550 1205 3614 1171 3618 1146C 3630 1085 3570 1039 3505 1060C 3469 1072 3460 1086 3460 1131L3460 1131L3460 1160L3356 1160L3253 1160L3238 1084L3223 1008L3254 995C 3322 967 3408 955 3545 956C 3699 957 3770 970 3844 1014C 3945 1073 3968 1201 3894 1290C 3867 1321 3798 1351 3708 1369C 3633 1385 3600 1411 3600 1455C 3600 1512 3663 1554 3706 1525C 3725 1513 3730 1501 3730 1470L3730 1470L3730 1430L3828 1430L3927 1430L3943 1502C 3951 1542 3957 1577 3954 1581C 3934 1614 3683 1651 3595 1634z" stroke="none" fill="#000000" fill-rule="nonzero" />
        <path d="M6216 878C 6172 673 6122 436 6105 352L6105 352L6072 200L6228 202L6384 205L6467 590C 6512 802 6562 1037 6578 1113L6578 1113L6608 1250L6451 1250L6295 1250L6216 878z" stroke="none" fill="#000000" fill-rule="nonzero" />
        <path d="M260 1186C 260 1182 61 252 53 223L53 223L48 200L214 200C 305 200 380 201 380 203C 380 206 436 466 445 508C 450 528 456 530 528 530C 765 531 932 616 990 766C 1009 812 1014 845 1014 921C 1015 1011 1013 1020 985 1066C 944 1131 876 1166 760 1180C 683 1189 260 1195 260 1186zM678 1079C 723 1064 734 1015 720 908C 703 783 658 678 606 645C 590 634 565 630 528 632L528 632L473 635L511 805C 531 899 553 1001 560 1033L560 1033L571 1090L609 1090C 630 1090 661 1085 678 1079z" stroke="none" fill="#000000" fill-rule="nonzero" />
        <path d="M1575 871C 1526 859 1483 832 1440 788C 1418 765 1397 750 1393 754C 1388 758 1380 785 1375 813L1375 813L1365 865L1240 865L1116 865L1048 550C 1011 377 980 227 980 218C 980 202 994 200 1133 200L1133 200L1285 200L1334 428C 1375 621 1386 658 1407 678C 1435 703 1472 707 1494 685C 1512 667 1517 651 1525 578L1525 578L1531 520L1611 520C 1684 520 1690 522 1695 543C 1727 683 1757 846 1752 851C 1724 876 1636 886 1575 871z" stroke="none" fill="#000000" fill-rule="nonzero" />
        <path d="M2092 866C 1991 846 1921 810 1861 745C 1793 670 1767 600 1767 490C 1766 309 1844 226 2039 198C 2183 178 2370 214 2450 278C 2547 357 2596 475 2588 613C 2581 744 2526 823 2418 855C 2342 877 2181 883 2092 866zM2258 764C 2277 751 2280 740 2280 684C 2280 505 2221 325 2155 300C 2091 276 2064 322 2073 444C 2085 618 2139 747 2210 773C 2233 781 2234 781 2258 764z" stroke="none" fill="#000000" fill-rule="nonzero" />
        <path d="M3930 870C 3771 844 3669 774 3611 650C 3588 602 3585 582 3585 490C 3585 375 3598 335 3656 276C 3768 163 4110 165 4267 279C 4353 341 4404 459 4404 596C 4404 666 4400 686 4374 736C 4341 802 4304 832 4226 855C 4163 874 4004 882 3930 870zM4076 766C 4093 753 4095 740 4093 663C 4088 426 4000 248 3916 304C 3884 324 3877 371 3890 474C 3917 689 4000 821 4076 766z" stroke="none" fill="#000000" fill-rule="nonzero" />
        <path d="M4765 865C 4644 843 4572 800 4533 725C 4512 687 4513 603 4533 563C 4558 515 4592 494 4699 461C 4835 419 4866 382 4816 323C 4797 301 4784 295 4750 295C 4701 295 4670 324 4670 371L4670 371L4670 400L4570 400L4470 400L4464 373C 4461 357 4454 329 4449 310C 4433 245 4434 244 4523 219C 4591 200 4630 196 4750 196C 4958 196 5061 228 5124 313C 5154 353 5154 473 5125 512C 5098 548 5029 584 4946 604C 4908 613 4864 628 4849 636C 4795 664 4801 734 4860 765C 4913 792 4950 763 4950 694C 4950 670 4951 670 5045 670L5045 670L5139 670L5149 708C 5155 728 5162 764 5166 787L5166 787L5172 829L5119 844C 4990 881 4884 887 4765 865z" stroke="none" fill="#000000" fill-rule="nonzero" />
        <path d="M5555 869C 5486 859 5397 834 5359 814C 5340 805 5331 790 5326 763C 5323 742 5317 715 5314 703C 5308 680 5308 680 5416 680L5416 680L5525 680L5545 717C 5580 782 5681 798 5716 744C 5729 726 5731 707 5726 666L5726 666L5719 612L5572 607C 5409 602 5347 588 5283 541C 5261 525 5235 495 5225 474C 5203 429 5200 337 5220 300C 5286 171 5471 158 5612 270C 5632 287 5653 300 5658 300C 5662 300 5672 277 5679 250L5679 250L5692 200L5814 200L5937 200L5979 398C 6002 509 6020 621 6020 655C 6019 755 5981 815 5895 848C 5819 877 5674 886 5555 869zM5696 523C 5694 513 5686 479 5679 448C 5665 381 5631 342 5579 334C 5528 325 5495 355 5495 409C 5495 484 5562 540 5653 540C 5694 540 5701 537 5696 523z" stroke="none" fill="#000000" fill-rule="nonzero" />
	</g>
</g>
</svg>